<svg id="Layer_1" data-name="Layer 1" xmlns="http://www.w3.org/2000/svg" viewBox="0 0 205.83 156.72"><path d="M40.85,78.72c1.62-6.4,5-8.61,10-8.6q93.36.16,186.73.07c4.52,0,7.57,2.64,8.7,7.51,1.53,6.56-1.92,13.27-7.09,13.77-.8.08-1.61,0-2.41,0q-93,0-185.93.07c-5,0-8.41-2.2-10-8.6Z" transform="translate(-40.85 -70.12)"/><path d="M40.85,146.35c1.62-6.4,5-8.61,10-8.6q93.36.17,186.73.07c4.52,0,7.57,2.64,8.7,7.51,1.53,6.56-1.92,13.27-7.09,13.77-.8.08-1.61,0-2.41,0q-93,0-185.93.07c-5,0-8.41-2.2-10-8.6Z" transform="translate(-40.85 -70.12)"/><path d="M40.85,214c1.62-6.4,5-8.61,10-8.6q93.36.17,186.73.07c4.52,0,7.57,2.64,8.7,7.51,1.53,6.56-1.92,13.27-7.09,13.77-.8.08-1.61,0-2.41,0q-93,0-185.93.07c-5,0-8.41-2.2-10-8.6Z" transform="translate(-40.85 -70.12)"/></svg>